<?xml version="1.0" encoding="UTF-8"?>
<svg id="nam-map" data-name="nam-map" xmlns="http://www.w3.org/2000/svg" viewBox="0 0 753.14 457.27">
  <g id="modules">
    <g id="module-1">
      <circle class="cls-2" cx="376.51" cy="22.48" r="22.48"/>
      <text class="cls-1" transform="translate(371.38 27.47)"><tspan x="0" y="0">1</tspan></text>
    </g>
    <g id="module-3">
      <circle class="cls-2" cx="481.14" cy="63.87" r="22.48"/>
      <text class="cls-1" transform="translate(478.05 68.55)"><tspan x="0" y="0">3</tspan></text>
    </g>
    <g id="module-4">
      <circle class="cls-2" cx="120.51" cy="104.25" r="22.48"/>
      <text class="cls-1" transform="translate(115.38 108.93)"><tspan x="0" y="0">4</tspan></text>
    </g>
    <g id="module-5">
      <circle class="cls-2" cx="632.51" cy="104.25" r="22.48"/>
      <text class="cls-1" transform="translate(627.38 108.93)"><tspan x="0" y="0">5</tspan></text>
    </g>
    <g id="module-6">
      <circle class="cls-2" cx="163.43" cy="207.37" r="22.48"/>
      <text class="cls-1" transform="translate(158.3 214.04)"><tspan x="0" y="0">6</tspan></text>
    </g>
    <g id="module-10">
      <circle class="cls-2" cx="589.84" cy="207.37" r="22.48"/>
      <text class="cls-1" transform="translate(579.58 214.04)"><tspan x="0" y="0">10</tspan></text>
    </g>
    <g id="module-8">
      <circle class="cls-2" cx="376" cy="213.46" r="22.48"/>
      <text class="cls-1" transform="translate(370.87 218.93)"><tspan x="0" y="0">8</tspan></text>
    </g>
    <g id="module-9">
      <circle class="cls-2" cx="484.7" cy="174.6" r="22.48"/>
      <text class="cls-1" transform="translate(479.6 179.25)"><tspan x="0" y="0">9</tspan></text>
    </g>
    <g id="module-7">
      <circle class="cls-2" cx="269.33" cy="174.6" r="22.48"/>
      <text class="cls-1" transform="translate(264.2 179.25)"><tspan x="0" y="0">7</tspan></text>
    </g>
    <g id="module-11">
      <circle class="cls-2" cx="22.48" cy="279.37" r="22.48"/>
      <text class="cls-1" transform="translate(12.22 284.04)"><tspan x="0" y="0">11</tspan></text>
    </g>
    <g id="module-12">
      <circle class="cls-2" cx="171.81" cy="317.08" r="22.48"/>
      <text class="cls-1" transform="translate(161.55 321.76)"><tspan x="0" y="0">12</tspan></text>
    </g>
    <g id="module-13">
      <circle class="cls-2" cx="279.37" cy="324.32" r="22.48"/>
      <text class="cls-1" transform="translate(267.39 328.99)"><tspan x="0" y="0">13</tspan></text>
    </g>
    <g id="module-14">
      <circle class="cls-2" cx="473.52" cy="324.32" r="22.48"/>
      <text class="cls-1" transform="translate(463.26 328.61)"><tspan x="0" y="0">14</tspan></text>
    </g>
    <g id="module-15">
      <circle class="cls-2" cx="581.33" cy="317.08" r="22.48"/>
      <text class="cls-1" transform="translate(571.07 324.36)"><tspan x="0" y="0">15</tspan></text>
    </g>
    <g id="module-17">
      <circle class="cls-2" cx="129.52" cy="420.7" r="22.48"/>
      <text class="cls-1" transform="translate(119.26 425.37)"><tspan x="0" y="0">17</tspan></text>
    </g>
    <g id="module-18">
      <circle class="cls-2" cx="301.84" cy="434.79" r="22.48"/>
      <text class="cls-1" transform="translate(291.58 439.47)"><tspan x="0" y="0">18</tspan></text>
    </g>
    <g id="module-19">
      <circle class="cls-2" cx="451.05" cy="434.79" r="22.48"/>
      <text class="cls-1" transform="translate(438.89 439.47)"><tspan x="0" y="0">19</tspan></text>
    </g>
    <g id="module-20">
      <circle class="cls-2" cx="624" cy="420.7" r="22.48"/>
      <text class="cls-1" transform="translate(613.74 426.57)"><tspan x="0" y="0">20</tspan></text>
    </g>
    <g id="module-11-2" data-name="module-11">
      <circle class="cls-2" cx="730.67" cy="279.37" r="22.48"/>
      <text class="cls-1" transform="translate(720.41 284.04)"><tspan x="0" y="0">11</tspan></text>
    </g>
    <g id="module-2">
      <circle class="cls-2" cx="271.37" cy="63.87" r="22.48"/>
      <text class="cls-1" transform="translate(266.24 68.55)"><tspan x="0" y="0">2</tspan></text>
    </g>
  </g>
</svg>